# xmcd CD database file
#
# Track frame offsets:
#	150
#	12964
#	26699
#	40335
#	51972
#	62356
#	73019
#	85223
#	98122
#	108471
#	121595
#	134660
#	146719
#	160416
#
# Disc length: 2290 seconds
#
# Revision: 0
# Processed by: cddbd v1.5.2PL0 Copyright (c) Steve Scherf et al.
# Submitted via: CDex 1.70beta2
#
DISCID=c108f00e
DTITLE=B.B. KING - Can't Kick The Blues 1
DYEAR=2011
DGENRE=Blues
TTITLE0=Every Day I Have The Blues
TTITLE1=The Woman I Love
TTITLE2=Three O'Clock Blues
TTITLE3=Early In The Morning
TTITLE4=Bad Luck Soul
TTITLE5=Treat Me Right
TTITLE6=Sugar Mama
TTITLE7=Please Love Me
TTITLE8=That Ain't The Way To Do It
TTITLE9=Sweet Thing
TTITLE10=You've Been An Angel
TTITLE11=The Fool
TTITLE12=You Upset Me Baby
TTITLE13=Please Accept My Love
EXTD=YEAR: 2011
EXTT0=
EXTT1=
EXTT2=
EXTT3=
EXTT4=
EXTT5=
EXTT6=
EXTT7=
EXTT8=
EXTT9=
EXTT10=
EXTT11=
EXTT12=
EXTT13=
PLAYORDER=
